<svg xmlns="http://www.w3.org/2000/svg" width="810" height="1772" viewBox="0 0 810 1772" font-family="monospace"><rect x="0" y="0" width="810" height="1772" fill="#ffffff"/><text x="30" y="18" font-family="monospace" font-size="11" fill="#999">wireframes / terminal portfolio  -  left = desktop, right = mobile  -  tablet = desktop with 2-col grids</text><text x="30" y="45" font-family="monospace" font-size="13" fill="#333" font-weight="bold">index.html</text><rect x="30" y="52" width="520" height="264" rx="8" fill="#ffffff" stroke="#cccccc" stroke-width="1"/><rect x="44" y="66" width="492" height="26" rx="3" fill="#ececec" stroke="#bdbdbd" stroke-width="1"/><text x="52" y="83" font-family="monospace" font-size="11" fill="#666">header / title bar</text><rect x="44" y="102" width="492" height="90" rx="4" fill="none" stroke="#bbbbbb" stroke-width="1" stroke-dasharray="4 3"/><text x="290" y="151" text-anchor="middle" font-family="monospace" font-size="11" fill="#555">banner + auto-printed help</text><rect x="44" y="202" width="492" height="28" rx="3" fill="#f6f6f6" stroke="#cfcfcf" stroke-width="1"/><text x="52" y="220" font-family="monospace" font-size="11" fill="#2e7d32">&gt; prompt (command input)</text><rect x="44" y="240" width="492" height="30" rx="3" fill="none" stroke="#dcdcdc" stroke-width="1" stroke-dasharray="3 3"/><rect x="52" y="247" width="46" height="16" rx="8" fill="none" stroke="#cfcfcf" stroke-width="1"/><rect x="106" y="247" width="46" height="16" rx="8" fill="none" stroke="#cfcfcf" stroke-width="1"/><rect x="160" y="247" width="46" height="16" rx="8" fill="none" stroke="#cfcfcf" stroke-width="1"/><text x="216" y="259" font-family="monospace" font-size="11" fill="#999">command chips (fallback nav)</text><rect x="44" y="280" width="492" height="22" rx="3" fill="#ececec" stroke="#bdbdbd" stroke-width="1"/><text x="52" y="295" font-family="monospace" font-size="11" fill="#666">footer (links / credit)</text><rect x="590" y="52" width="190" height="264" rx="8" fill="#ffffff" stroke="#cccccc" stroke-width="1"/><rect x="604" y="66" width="162" height="26" rx="3" fill="#ececec" stroke="#bdbdbd" stroke-width="1"/><text x="612" y="82" font-family="monospace" font-size="9" fill="#666">header</text><rect x="604" y="102" width="162" height="90" rx="4" fill="none" stroke="#bbbbbb" stroke-width="1" stroke-dasharray="4 3"/><text x="685" y="150" text-anchor="middle" font-family="monospace" font-size="9" fill="#555">banner + help</text><rect x="604" y="202" width="162" height="28" rx="3" fill="#f6f6f6" stroke="#cfcfcf" stroke-width="1"/><text x="612" y="219" font-family="monospace" font-size="9" fill="#2e7d32">&gt; prompt</text><rect x="604" y="240" width="162" height="30" rx="3" fill="none" stroke="#dcdcdc" stroke-width="1" stroke-dasharray="3 3"/><rect x="612" y="247" width="30" height="16" rx="8" fill="none" stroke="#cfcfcf" stroke-width="1"/><rect x="650" y="247" width="30" height="16" rx="8" fill="none" stroke="#cfcfcf" stroke-width="1"/><text x="690" y="258" font-family="monospace" font-size="9" fill="#999">chips</text><rect x="604" y="280" width="162" height="22" rx="3" fill="#ececec" stroke="#bdbdbd" stroke-width="1"/><text x="612" y="294" font-family="monospace" font-size="9" fill="#666">footer</text><text x="30" y="361" font-family="monospace" font-size="13" fill="#333" font-weight="bold">projekte.html  (ls projects)</text><rect x="30" y="368" width="520" height="368" rx="8" fill="#ffffff" stroke="#cccccc" stroke-width="1"/><rect x="44" y="382" width="492" height="26" rx="3" fill="#ececec" stroke="#bdbdbd" stroke-width="1"/><text x="52" y="399" font-family="monospace" font-size="11" fill="#666">header / title bar</text><rect x="44" y="418" width="492" height="26" rx="3" fill="#f6f6f6" stroke="#cfcfcf" stroke-width="1"/><text x="52" y="435" font-family="monospace" font-size="11" fill="#2e7d32">&gt; ls projects</text><rect x="44" y="454" width="492" height="30" rx="3" fill="none" stroke="#dcdcdc" stroke-width="1" stroke-dasharray="3 3"/><rect x="52" y="461" width="46" height="16" rx="8" fill="none" stroke="#cfcfcf" stroke-width="1"/><rect x="106" y="461" width="46" height="16" rx="8" fill="none" stroke="#cfcfcf" stroke-width="1"/><rect x="160" y="461" width="46" height="16" rx="8" fill="none" stroke="#cfcfcf" stroke-width="1"/><text x="216" y="473" font-family="monospace" font-size="11" fill="#999">category filter: all / systems / security / tools</text><rect x="44" y="494" width="492" height="120" rx="4" fill="none" stroke="#bbbbbb" stroke-width="1" stroke-dasharray="4 3"/><text x="290" y="558" text-anchor="middle" font-family="monospace" font-size="11" fill="#555">project grid  (3 -&gt; 2 -&gt; 1 columns)</text><rect x="44" y="624" width="492" height="26" rx="3" fill="#f6f6f6" stroke="#cfcfcf" stroke-width="1"/><text x="52" y="641" font-family="monospace" font-size="11" fill="#2e7d32">&gt; prompt</text><rect x="44" y="660" width="492" height="30" rx="3" fill="none" stroke="#dcdcdc" stroke-width="1" stroke-dasharray="3 3"/><rect x="52" y="667" width="46" height="16" rx="8" fill="none" stroke="#cfcfcf" stroke-width="1"/><rect x="106" y="667" width="46" height="16" rx="8" fill="none" stroke="#cfcfcf" stroke-width="1"/><rect x="160" y="667" width="46" height="16" rx="8" fill="none" stroke="#cfcfcf" stroke-width="1"/><text x="216" y="679" font-family="monospace" font-size="11" fill="#999">command chips</text><rect x="44" y="700" width="492" height="22" rx="3" fill="#ececec" stroke="#bdbdbd" stroke-width="1"/><text x="52" y="715" font-family="monospace" font-size="11" fill="#666">footer</text><rect x="590" y="368" width="190" height="368" rx="8" fill="#ffffff" stroke="#cccccc" stroke-width="1"/><rect x="604" y="382" width="162" height="26" rx="3" fill="#ececec" stroke="#bdbdbd" stroke-width="1"/><text x="612" y="398" font-family="monospace" font-size="9" fill="#666">header</text><rect x="604" y="418" width="162" height="26" rx="3" fill="#f6f6f6" stroke="#cfcfcf" stroke-width="1"/><text x="612" y="434" font-family="monospace" font-size="9" fill="#2e7d32">&gt; ls projects</text><rect x="604" y="454" width="162" height="30" rx="3" fill="none" stroke="#dcdcdc" stroke-width="1" stroke-dasharray="3 3"/><rect x="612" y="461" width="30" height="16" rx="8" fill="none" stroke="#cfcfcf" stroke-width="1"/><rect x="650" y="461" width="30" height="16" rx="8" fill="none" stroke="#cfcfcf" stroke-width="1"/><text x="690" y="472" font-family="monospace" font-size="9" fill="#999">filters</text><rect x="604" y="494" width="162" height="120" rx="4" fill="none" stroke="#bbbbbb" stroke-width="1" stroke-dasharray="4 3"/><text x="685" y="557" text-anchor="middle" font-family="monospace" font-size="9" fill="#555">grid 3-&gt;1</text><rect x="604" y="624" width="162" height="26" rx="3" fill="#f6f6f6" stroke="#cfcfcf" stroke-width="1"/><text x="612" y="640" font-family="monospace" font-size="9" fill="#2e7d32">&gt; prompt</text><rect x="604" y="660" width="162" height="30" rx="3" fill="none" stroke="#dcdcdc" stroke-width="1" stroke-dasharray="3 3"/><rect x="612" y="667" width="30" height="16" rx="8" fill="none" stroke="#cfcfcf" stroke-width="1"/><rect x="650" y="667" width="30" height="16" rx="8" fill="none" stroke="#cfcfcf" stroke-width="1"/><text x="690" y="678" font-family="monospace" font-size="9" fill="#999">chips</text><rect x="604" y="700" width="162" height="22" rx="3" fill="#ececec" stroke="#bdbdbd" stroke-width="1"/><text x="612" y="714" font-family="monospace" font-size="9" fill="#666">footer</text><text x="30" y="781" font-family="monospace" font-size="13" fill="#333" font-weight="bold">projekt/&lt;slug&gt;.html  (open &lt;name&gt;)</text><rect x="30" y="788" width="520" height="548" rx="8" fill="#ffffff" stroke="#cccccc" stroke-width="1"/><rect x="44" y="802" width="492" height="26" rx="3" fill="#ececec" stroke="#bdbdbd" stroke-width="1"/><text x="52" y="819" font-family="monospace" font-size="11" fill="#666">header / title bar</text><rect x="44" y="838" width="492" height="24" rx="3" fill="#f6f6f6" stroke="#cfcfcf" stroke-width="1"/><text x="52" y="854" font-family="monospace" font-size="11" fill="#2e7d32">&gt; open &lt;name&gt;</text><rect x="44" y="872" width="492" height="40" rx="4" fill="none" stroke="#bbbbbb" stroke-width="1" stroke-dasharray="4 3"/><text x="290" y="896" text-anchor="middle" font-family="monospace" font-size="11" fill="#555">title + category + tech tags</text><rect x="44" y="922" width="492" height="50" rx="4" fill="none" stroke="#bbbbbb" stroke-width="1" stroke-dasharray="4 3"/><text x="290" y="951" text-anchor="middle" font-family="monospace" font-size="11" fill="#555">overview</text><rect x="44" y="982" width="492" height="54" rx="4" fill="none" stroke="#bbbbbb" stroke-width="1" stroke-dasharray="4 3"/><text x="290" y="1013" text-anchor="middle" font-family="monospace" font-size="11" fill="#555">features</text><rect x="44" y="1046" width="492" height="56" rx="4" fill="none" stroke="#bbbbbb" stroke-width="1" stroke-dasharray="4 3"/><text x="290" y="1078" text-anchor="middle" font-family="monospace" font-size="11" fill="#555">gallery  (3 -&gt; 1 columns)</text><rect x="44" y="1112" width="492" height="30" rx="4" fill="none" stroke="#bbbbbb" stroke-width="1" stroke-dasharray="4 3"/><text x="290" y="1131" text-anchor="middle" font-family="monospace" font-size="11" fill="#555">links: github / live</text><rect x="44" y="1152" width="492" height="64" rx="4" fill="none" stroke="#bbbbbb" stroke-width="1" stroke-dasharray="4 3"/><text x="290" y="1188" text-anchor="middle" font-family="monospace" font-size="11" fill="#555">inquiry form: name / email / message</text><rect x="44" y="1226" width="492" height="24" rx="3" fill="#f6f6f6" stroke="#cfcfcf" stroke-width="1"/><text x="52" y="1242" font-family="monospace" font-size="11" fill="#2e7d32">&gt; prompt</text><rect x="44" y="1260" width="492" height="30" rx="3" fill="none" stroke="#dcdcdc" stroke-width="1" stroke-dasharray="3 3"/><rect x="52" y="1267" width="46" height="16" rx="8" fill="none" stroke="#cfcfcf" stroke-width="1"/><rect x="106" y="1267" width="46" height="16" rx="8" fill="none" stroke="#cfcfcf" stroke-width="1"/><rect x="160" y="1267" width="46" height="16" rx="8" fill="none" stroke="#cfcfcf" stroke-width="1"/><text x="216" y="1279" font-family="monospace" font-size="11" fill="#999">command chips</text><rect x="44" y="1300" width="492" height="22" rx="3" fill="#ececec" stroke="#bdbdbd" stroke-width="1"/><text x="52" y="1315" font-family="monospace" font-size="11" fill="#666">footer</text><rect x="590" y="788" width="190" height="548" rx="8" fill="#ffffff" stroke="#cccccc" stroke-width="1"/><rect x="604" y="802" width="162" height="26" rx="3" fill="#ececec" stroke="#bdbdbd" stroke-width="1"/><text x="612" y="818" font-family="monospace" font-size="9" fill="#666">header</text><rect x="604" y="838" width="162" height="24" rx="3" fill="#f6f6f6" stroke="#cfcfcf" stroke-width="1"/><text x="612" y="853" font-family="monospace" font-size="9" fill="#2e7d32">&gt; open</text><rect x="604" y="872" width="162" height="40" rx="4" fill="none" stroke="#bbbbbb" stroke-width="1" stroke-dasharray="4 3"/><text x="685" y="895" text-anchor="middle" font-family="monospace" font-size="9" fill="#555">title + tags</text><rect x="604" y="922" width="162" height="50" rx="4" fill="none" stroke="#bbbbbb" stroke-width="1" stroke-dasharray="4 3"/><text x="685" y="950" text-anchor="middle" font-family="monospace" font-size="9" fill="#555">overview</text><rect x="604" y="982" width="162" height="54" rx="4" fill="none" stroke="#bbbbbb" stroke-width="1" stroke-dasharray="4 3"/><text x="685" y="1012" text-anchor="middle" font-family="monospace" font-size="9" fill="#555">features</text><rect x="604" y="1046" width="162" height="56" rx="4" fill="none" stroke="#bbbbbb" stroke-width="1" stroke-dasharray="4 3"/><text x="685" y="1077" text-anchor="middle" font-family="monospace" font-size="9" fill="#555">gallery</text><rect x="604" y="1112" width="162" height="30" rx="4" fill="none" stroke="#bbbbbb" stroke-width="1" stroke-dasharray="4 3"/><text x="685" y="1130" text-anchor="middle" font-family="monospace" font-size="9" fill="#555">links</text><rect x="604" y="1152" width="162" height="64" rx="4" fill="none" stroke="#bbbbbb" stroke-width="1" stroke-dasharray="4 3"/><text x="685" y="1187" text-anchor="middle" font-family="monospace" font-size="9" fill="#555">form</text><rect x="604" y="1226" width="162" height="24" rx="3" fill="#f6f6f6" stroke="#cfcfcf" stroke-width="1"/><text x="612" y="1241" font-family="monospace" font-size="9" fill="#2e7d32">&gt; prompt</text><rect x="604" y="1260" width="162" height="30" rx="3" fill="none" stroke="#dcdcdc" stroke-width="1" stroke-dasharray="3 3"/><rect x="612" y="1267" width="30" height="16" rx="8" fill="none" stroke="#cfcfcf" stroke-width="1"/><rect x="650" y="1267" width="30" height="16" rx="8" fill="none" stroke="#cfcfcf" stroke-width="1"/><text x="690" y="1278" font-family="monospace" font-size="9" fill="#999">chips</text><rect x="604" y="1300" width="162" height="22" rx="3" fill="#ececec" stroke="#bdbdbd" stroke-width="1"/><text x="612" y="1314" font-family="monospace" font-size="9" fill="#666">footer</text><text x="30" y="1381" font-family="monospace" font-size="13" fill="#333" font-weight="bold">kontakt.html  (contact)</text><rect x="30" y="1388" width="520" height="354" rx="8" fill="#ffffff" stroke="#cccccc" stroke-width="1"/><rect x="44" y="1402" width="492" height="26" rx="3" fill="#ececec" stroke="#bdbdbd" stroke-width="1"/><text x="52" y="1419" font-family="monospace" font-size="11" fill="#666">header / title bar</text><rect x="44" y="1438" width="492" height="24" rx="3" fill="#f6f6f6" stroke="#cfcfcf" stroke-width="1"/><text x="52" y="1454" font-family="monospace" font-size="11" fill="#2e7d32">&gt; contact</text><rect x="44" y="1472" width="492" height="44" rx="4" fill="none" stroke="#bbbbbb" stroke-width="1" stroke-dasharray="4 3"/><text x="290" y="1498" text-anchor="middle" font-family="monospace" font-size="11" fill="#555">about + links</text><rect x="44" y="1526" width="492" height="96" rx="4" fill="none" stroke="#bbbbbb" stroke-width="1" stroke-dasharray="4 3"/><text x="290" y="1578" text-anchor="middle" font-family="monospace" font-size="11" fill="#555">contact form: name / email / subject / message / send</text><rect x="44" y="1632" width="492" height="24" rx="3" fill="#f6f6f6" stroke="#cfcfcf" stroke-width="1"/><text x="52" y="1648" font-family="monospace" font-size="11" fill="#2e7d32">&gt; prompt</text><rect x="44" y="1666" width="492" height="30" rx="3" fill="none" stroke="#dcdcdc" stroke-width="1" stroke-dasharray="3 3"/><rect x="52" y="1673" width="46" height="16" rx="8" fill="none" stroke="#cfcfcf" stroke-width="1"/><rect x="106" y="1673" width="46" height="16" rx="8" fill="none" stroke="#cfcfcf" stroke-width="1"/><rect x="160" y="1673" width="46" height="16" rx="8" fill="none" stroke="#cfcfcf" stroke-width="1"/><text x="216" y="1685" font-family="monospace" font-size="11" fill="#999">command chips</text><rect x="44" y="1706" width="492" height="22" rx="3" fill="#ececec" stroke="#bdbdbd" stroke-width="1"/><text x="52" y="1721" font-family="monospace" font-size="11" fill="#666">footer</text><rect x="590" y="1388" width="190" height="354" rx="8" fill="#ffffff" stroke="#cccccc" stroke-width="1"/><rect x="604" y="1402" width="162" height="26" rx="3" fill="#ececec" stroke="#bdbdbd" stroke-width="1"/><text x="612" y="1418" font-family="monospace" font-size="9" fill="#666">header</text><rect x="604" y="1438" width="162" height="24" rx="3" fill="#f6f6f6" stroke="#cfcfcf" stroke-width="1"/><text x="612" y="1453" font-family="monospace" font-size="9" fill="#2e7d32">&gt; contact</text><rect x="604" y="1472" width="162" height="44" rx="4" fill="none" stroke="#bbbbbb" stroke-width="1" stroke-dasharray="4 3"/><text x="685" y="1497" text-anchor="middle" font-family="monospace" font-size="9" fill="#555">about</text><rect x="604" y="1526" width="162" height="96" rx="4" fill="none" stroke="#bbbbbb" stroke-width="1" stroke-dasharray="4 3"/><text x="685" y="1577" text-anchor="middle" font-family="monospace" font-size="9" fill="#555">form</text><rect x="604" y="1632" width="162" height="24" rx="3" fill="#f6f6f6" stroke="#cfcfcf" stroke-width="1"/><text x="612" y="1647" font-family="monospace" font-size="9" fill="#2e7d32">&gt; prompt</text><rect x="604" y="1666" width="162" height="30" rx="3" fill="none" stroke="#dcdcdc" stroke-width="1" stroke-dasharray="3 3"/><rect x="612" y="1673" width="30" height="16" rx="8" fill="none" stroke="#cfcfcf" stroke-width="1"/><rect x="650" y="1673" width="30" height="16" rx="8" fill="none" stroke="#cfcfcf" stroke-width="1"/><text x="690" y="1684" font-family="monospace" font-size="9" fill="#999">chips</text><rect x="604" y="1706" width="162" height="22" rx="3" fill="#ececec" stroke="#bdbdbd" stroke-width="1"/><text x="612" y="1720" font-family="monospace" font-size="9" fill="#666">footer</text></svg>