<svg xmlns="http://www.w3.org/2000/svg" width="860" height="330" viewBox="0 0 860 330"><rect x="0" y="0" width="860" height="330" rx="10" fill="#0e0e14"/><defs><marker id="ah" markerWidth="9" markerHeight="9" refX="6" refY="3" orient="auto"><path d="M0,0 L6,3 L0,6 Z" fill="#565f89"/></marker></defs><text x="20" y="30" font-family="ui-monospace, 'JetBrains Mono', monospace" font-size="12" fill="#7aa2f7" text-anchor="start" font-weight="normal">// structure</text><text x="20" y="80" font-family="ui-monospace, 'JetBrains Mono', monospace" font-size="12" fill="#7aa2f7" text-anchor="start" font-weight="normal">singly linked</text><rect x="60" y="96" width="110" height="46" rx="6" fill="#1a1b26" stroke="#7aa2f7" stroke-width="1.5"/><line x1="130" y1="96" x2="130" y2="142" stroke="#7aa2f7" stroke-width="1"/><text x="95.0" y="124.0" font-family="ui-monospace, 'JetBrains Mono', monospace" font-size="12" fill="#c0caf5" text-anchor="middle" font-weight="normal">12</text><text x="150.0" y="124.0" font-family="ui-monospace, 'JetBrains Mono', monospace" font-size="14" fill="#565f89" text-anchor="middle" font-weight="normal">*</text><rect x="260" y="96" width="110" height="46" rx="6" fill="#1a1b26" stroke="#7aa2f7" stroke-width="1.5"/><line x1="330" y1="96" x2="330" y2="142" stroke="#7aa2f7" stroke-width="1"/><text x="295.0" y="124.0" font-family="ui-monospace, 'JetBrains Mono', monospace" font-size="12" fill="#c0caf5" text-anchor="middle" font-weight="normal">99</text><text x="350.0" y="124.0" font-family="ui-monospace, 'JetBrains Mono', monospace" font-size="14" fill="#565f89" text-anchor="middle" font-weight="normal">*</text><rect x="460" y="96" width="110" height="46" rx="6" fill="#1a1b26" stroke="#7aa2f7" stroke-width="1.5"/><line x1="530" y1="96" x2="530" y2="142" stroke="#7aa2f7" stroke-width="1"/><text x="495.0" y="124.0" font-family="ui-monospace, 'JetBrains Mono', monospace" font-size="12" fill="#c0caf5" text-anchor="middle" font-weight="normal">37</text><text x="550.0" y="124.0" font-family="ui-monospace, 'JetBrains Mono', monospace" font-size="14" fill="#565f89" text-anchor="middle" font-weight="normal">*</text><line x1="170" y1="119" x2="260" y2="119" stroke="#565f89" stroke-width="1.5" marker-end="url(#ah)"/><line x1="370" y1="119" x2="460" y2="119" stroke="#565f89" stroke-width="1.5" marker-end="url(#ah)"/><line x1="570" y1="119" x2="630" y2="119" stroke="#565f89" stroke-width="1.5" marker-end="url(#ah)"/><text x="640" y="124" font-family="ui-monospace, 'JetBrains Mono', monospace" font-size="12" fill="#565f89" text-anchor="start" font-weight="normal">null</text><text x="20" y="210" font-family="ui-monospace, 'JetBrains Mono', monospace" font-size="12" fill="#7aa2f7" text-anchor="start" font-weight="normal">doubly linked</text><rect x="60" y="226" width="140" height="46" rx="6" fill="#1a1b26" stroke="#7aa2f7" stroke-width="1.5"/><line x1="94" y1="226" x2="94" y2="272" stroke="#7aa2f7" stroke-width="1"/><line x1="166" y1="226" x2="166" y2="272" stroke="#7aa2f7" stroke-width="1"/><text x="77.0" y="254.0" font-family="ui-monospace, 'JetBrains Mono', monospace" font-size="13" fill="#565f89" text-anchor="middle" font-weight="normal">*</text><text x="130.0" y="254.0" font-family="ui-monospace, 'JetBrains Mono', monospace" font-size="12" fill="#c0caf5" text-anchor="middle" font-weight="normal">12</text><text x="183.0" y="254.0" font-family="ui-monospace, 'JetBrains Mono', monospace" font-size="13" fill="#565f89" text-anchor="middle" font-weight="normal">*</text><rect x="290" y="226" width="140" height="46" rx="6" fill="#1a1b26" stroke="#7aa2f7" stroke-width="1.5"/><line x1="324" y1="226" x2="324" y2="272" stroke="#7aa2f7" stroke-width="1"/><line x1="396" y1="226" x2="396" y2="272" stroke="#7aa2f7" stroke-width="1"/><text x="307.0" y="254.0" font-family="ui-monospace, 'JetBrains Mono', monospace" font-size="13" fill="#565f89" text-anchor="middle" font-weight="normal">*</text><text x="360.0" y="254.0" font-family="ui-monospace, 'JetBrains Mono', monospace" font-size="12" fill="#c0caf5" text-anchor="middle" font-weight="normal">99</text><text x="413.0" y="254.0" font-family="ui-monospace, 'JetBrains Mono', monospace" font-size="13" fill="#565f89" text-anchor="middle" font-weight="normal">*</text><rect x="520" y="226" width="140" height="46" rx="6" fill="#1a1b26" stroke="#7aa2f7" stroke-width="1.5"/><line x1="554" y1="226" x2="554" y2="272" stroke="#7aa2f7" stroke-width="1"/><line x1="626" y1="226" x2="626" y2="272" stroke="#7aa2f7" stroke-width="1"/><text x="537.0" y="254.0" font-family="ui-monospace, 'JetBrains Mono', monospace" font-size="13" fill="#565f89" text-anchor="middle" font-weight="normal">*</text><text x="590.0" y="254.0" font-family="ui-monospace, 'JetBrains Mono', monospace" font-size="12" fill="#c0caf5" text-anchor="middle" font-weight="normal">37</text><text x="643.0" y="254.0" font-family="ui-monospace, 'JetBrains Mono', monospace" font-size="13" fill="#565f89" text-anchor="middle" font-weight="normal">*</text><line x1="200" y1="240" x2="290" y2="240" stroke="#565f89" stroke-width="1.5" marker-end="url(#ah)"/><line x1="290" y1="262" x2="200" y2="262" stroke="#565f89" stroke-width="1.5" marker-end="url(#ah)"/><line x1="430" y1="240" x2="520" y2="240" stroke="#565f89" stroke-width="1.5" marker-end="url(#ah)"/><line x1="520" y1="262" x2="430" y2="262" stroke="#565f89" stroke-width="1.5" marker-end="url(#ah)"/><text x="30" y="254" font-family="ui-monospace, 'JetBrains Mono', monospace" font-size="12" fill="#565f89" text-anchor="start" font-weight="normal">null</text><line x1="660" y1="250" x2="720" y2="250" stroke="#565f89" stroke-width="1.5" marker-end="url(#ah)"/><text x="730" y="255" font-family="ui-monospace, 'JetBrains Mono', monospace" font-size="12" fill="#565f89" text-anchor="start" font-weight="normal">null</text><text x="20" y="314" font-family="ui-monospace, 'JetBrains Mono', monospace" font-size="11" fill="#565f89" text-anchor="start" font-weight="normal">linked-list · Java · written from scratch (no library collections)</text></svg>